<svg width="2258" height="1403" viewBox="0 0 2258 1403" fill="none" xmlns="http://www.w3.org/2000/svg">
<g id="wave">
<path id="Vector" fill-rule="evenodd" clip-rule="evenodd" d="M226.985 0L277.909 82.1626C328.833 164.325 430.681 328.65 553.45 412.168C676.218 495.686 819.907 498.396 967.779 484.944C1115.65 471.493 1267.71 441.88 1396.75 501.156C1525.8 560.431 1631.83 708.595 1756.69 784.032C1881.55 859.468 2025.24 862.179 2097.08 863.534L2168.93 864.889L2131.27 1010.34L2063.61 992.826C1995.95 975.309 1860.63 940.276 1725.31 905.243C1589.99 870.21 1454.67 835.177 1319.35 800.144C1184.03 765.11 1048.71 730.077 913.387 695.044C778.066 660.011 642.746 624.978 507.425 589.945C372.104 554.912 236.784 519.879 169.124 502.362L101.463 484.845L226.985 0Z" fill="#E1F6F4"/>
<path id="Vector_2" fill-rule="evenodd" clip-rule="evenodd" d="M2030.58 1402.46L1979.65 1320.3C1928.73 1238.13 1826.88 1073.81 1704.11 990.29C1581.35 906.773 1437.66 904.063 1289.78 917.514C1141.91 930.965 989.854 960.578 860.81 901.303C731.765 842.027 625.733 693.864 500.873 618.427C376.012 542.99 232.324 540.28 160.479 538.925L88.6349 537.57L126.291 392.116L193.952 409.633C261.612 427.149 396.932 462.182 532.253 497.215C667.574 532.249 802.894 567.282 938.215 602.315C1073.54 637.348 1208.86 672.381 1344.18 707.414C1479.5 742.447 1614.82 777.48 1750.14 812.514C1885.46 847.547 2020.78 882.58 2088.44 900.096L2156.1 917.613L2030.58 1402.46Z" fill="#E1F6F4"/>
</g>
</svg>
